<?xml version="1.0" encoding="utf-8"?>
<!-- Generator: Adobe Illustrator 27.5.0, SVG Export Plug-In . SVG Version: 6.00 Build 0)  -->
<svg version="1.1" id="Layer_1" xmlns="http://www.w3.org/2000/svg" xmlns:xlink="http://www.w3.org/1999/xlink" x="0px" y="0px"
	 viewBox="0 0 292.7 292.7" style="enable-background:new 0 0 292.7 292.7;" xml:space="preserve">
<style type="text/css">
	.st0{enable-background:new    ;}
	.st1{fill:#FFFFFF;}
</style>
<g>
	<g class="st0">
		<path class="st1" d="M81.7,119.2c1-1.8,2.4-3.2,4.1-4.2c1.8-1,3.8-1.5,6-1.5c2.8,0,5.1,0.7,7.1,2.2s3.3,3.4,3.9,5.9h-6.2
			c-0.5-1-1.1-1.7-2-2.2c-0.8-0.5-1.8-0.8-2.9-0.8c-1.7,0-3.1,0.6-4.2,1.8c-1.1,1.2-1.6,2.8-1.6,4.9c0,2,0.5,3.6,1.6,4.9
			c1.1,1.2,2.5,1.8,4.2,1.8c1.1,0,2-0.3,2.9-0.8c0.8-0.5,1.5-1.2,2-2.2h6.2c-0.7,2.5-2,4.5-3.9,5.9c-2,1.4-4.3,2.2-7.1,2.2
			c-2.2,0-4.3-0.5-6-1.5c-1.8-1-3.2-2.4-4.1-4.2c-1-1.8-1.5-3.8-1.5-6.1S80.7,121,81.7,119.2z"/>
		<path class="st1" d="M109.8,136c-1.4-0.8-2.6-1.9-3.4-3.3c-0.8-1.4-1.2-3.1-1.2-5c0-1.9,0.4-3.6,1.3-5c0.8-1.4,2-2.5,3.4-3.3
			c1.5-0.8,3.1-1.2,4.9-1.2c1.8,0,3.4,0.4,4.9,1.2c1.5,0.8,2.6,1.9,3.4,3.3c0.8,1.4,1.3,3.1,1.3,5c0,1.9-0.4,3.6-1.3,5
			c-0.8,1.4-2,2.5-3.5,3.3c-1.5,0.8-3.1,1.2-4.9,1.2C112.8,137.2,111.2,136.8,109.8,136z M117.4,131.1c0.8-0.8,1.1-1.9,1.1-3.4
			c0-1.5-0.4-2.6-1.1-3.4c-0.7-0.8-1.6-1.2-2.7-1.2c-1.1,0-2,0.4-2.7,1.2c-0.7,0.8-1.1,1.9-1.1,3.4c0,1.5,0.4,2.6,1.1,3.4
			s1.6,1.2,2.7,1.2C115.7,132.3,116.6,131.9,117.4,131.1z"/>
		<path class="st1" d="M156.2,120.4c1.4,1.4,2,3.3,2,5.8v10.8h-5.6v-10c0-1.2-0.3-2.1-0.9-2.8c-0.6-0.6-1.5-1-2.6-1s-2,0.3-2.6,1
			c-0.6,0.6-0.9,1.6-0.9,2.8v10H140v-10c0-1.2-0.3-2.1-0.9-2.8c-0.6-0.6-1.5-1-2.6-1s-2,0.3-2.6,1c-0.6,0.6-0.9,1.6-0.9,2.8v10h-5.6
			v-18.4h5.6v2.3c0.6-0.8,1.3-1.4,2.2-1.8c0.9-0.5,2-0.7,3.1-0.7c1.4,0,2.6,0.3,3.7,0.9c1.1,0.6,1.9,1.4,2.6,2.5
			c0.6-1,1.5-1.8,2.6-2.5c1.1-0.6,2.3-1,3.6-1C153.1,118.3,154.9,119,156.2,120.4z"/>
		<path class="st1" d="M162.7,115.7c-0.6-0.6-0.9-1.3-0.9-2.2c0-0.9,0.3-1.6,0.9-2.2c0.6-0.6,1.4-0.9,2.4-0.9c1,0,1.8,0.3,2.4,0.9
			s0.9,1.3,0.9,2.2c0,0.9-0.3,1.6-0.9,2.2s-1.4,0.9-2.4,0.9C164.1,116.6,163.3,116.3,162.7,115.7z M167.9,118.5v18.4h-5.6v-18.4
			H167.9z"/>
		<path class="st1" d="M188.4,120.4c1.3,1.4,1.9,3.3,1.9,5.8v10.8h-5.6v-10c0-1.2-0.3-2.2-1-2.9c-0.6-0.7-1.5-1-2.6-1
			s-1.9,0.3-2.6,1c-0.6,0.7-1,1.6-1,2.9v10H172v-18.4h5.6v2.4c0.6-0.8,1.3-1.5,2.3-1.9c1-0.5,2.1-0.7,3.3-0.7
			C185.3,118.3,187.1,119,188.4,120.4z"/>
		<path class="st1" d="M204.6,119c1,0.5,1.7,1.2,2.3,2.1v-2.6h5.6v18.4c0,1.7-0.3,3.2-1,4.6s-1.7,2.5-3.1,3.3
			c-1.4,0.8-3.1,1.2-5.1,1.2c-2.7,0-4.9-0.6-6.6-1.9c-1.7-1.3-2.7-3-2.9-5.2h5.6c0.2,0.7,0.6,1.3,1.3,1.7s1.5,0.6,2.4,0.6
			c1.2,0,2.1-0.3,2.8-1c0.7-0.7,1-1.7,1-3.2v-2.6c-0.5,0.9-1.3,1.6-2.3,2.1c-1,0.5-2.1,0.8-3.4,0.8c-1.5,0-2.9-0.4-4.1-1.2
			c-1.2-0.8-2.2-1.9-2.9-3.3c-0.7-1.4-1.1-3.1-1.1-5c0-1.9,0.4-3.6,1.1-5s1.7-2.5,2.9-3.3c1.2-0.8,2.6-1.2,4.1-1.2
			C202.5,118.3,203.6,118.5,204.6,119z M205.7,124.4c-0.8-0.8-1.7-1.2-2.9-1.2s-2.1,0.4-2.9,1.2c-0.8,0.8-1.2,1.9-1.2,3.3
			c0,1.4,0.4,2.5,1.2,3.3c0.8,0.8,1.7,1.2,2.9,1.2s2.1-0.4,2.9-1.2c0.8-0.8,1.2-1.9,1.2-3.3C206.9,126.3,206.5,125.2,205.7,124.4z"
			/>
	</g>
	<g class="st0">
		<path class="st1" d="M110.7,181.4c-1.3-0.5-2.2-1.3-3-2.3s-1.1-2-1.2-3.2h5.6c0.1,0.6,0.4,1.2,0.9,1.6c0.5,0.4,1.2,0.6,1.9,0.6
			c0.7,0,1.2-0.1,1.6-0.4c0.4-0.3,0.6-0.6,0.6-1.1c0-0.5-0.3-0.9-0.8-1.2c-0.6-0.3-1.4-0.5-2.7-0.8c-1.3-0.3-2.4-0.6-3.3-1
			s-1.6-0.9-2.3-1.6c-0.6-0.7-1-1.7-1-3c0-1.1,0.3-2,0.9-2.9c0.6-0.9,1.4-1.6,2.6-2.1c1.1-0.5,2.5-0.8,4-0.8c2.3,0,4.1,0.6,5.5,1.7
			c1.3,1.1,2.1,2.7,2.3,4.6h-5.2c-0.1-0.6-0.4-1.1-0.8-1.5s-1.1-0.6-1.9-0.6c-0.7,0-1.2,0.1-1.5,0.4c-0.4,0.3-0.5,0.6-0.5,1
			c0,0.5,0.3,0.9,0.8,1.2s1.4,0.5,2.6,0.8c1.4,0.4,2.5,0.7,3.3,1c0.9,0.3,1.6,0.9,2.3,1.7s1,1.8,1,3.1c0,1.1-0.3,2-0.9,2.9
			c-0.6,0.8-1.5,1.5-2.6,2c-1.1,0.5-2.4,0.7-3.9,0.7C113.4,182.2,112,181.9,110.7,181.4z"/>
		<path class="st1" d="M129.5,181c-1.4-0.8-2.6-1.9-3.4-3.3c-0.8-1.4-1.2-3.1-1.2-5c0-1.9,0.4-3.6,1.3-5c0.8-1.4,2-2.5,3.4-3.3
			c1.5-0.8,3.1-1.2,4.9-1.2c1.8,0,3.4,0.4,4.9,1.2c1.5,0.8,2.6,1.9,3.4,3.3c0.8,1.4,1.3,3.1,1.3,5c0,1.9-0.4,3.6-1.3,5
			c-0.8,1.4-2,2.5-3.5,3.3c-1.5,0.8-3.1,1.2-4.9,1.2C132.5,182.2,130.9,181.8,129.5,181z M137.1,176.1c0.8-0.8,1.1-1.9,1.1-3.4
			c0-1.5-0.4-2.6-1.1-3.4c-0.7-0.8-1.6-1.2-2.7-1.2c-1.1,0-2,0.4-2.7,1.2c-0.7,0.8-1.1,1.9-1.1,3.4c0,1.5,0.4,2.6,1.1,3.4
			s1.6,1.2,2.7,1.2C135.4,177.3,136.3,176.9,137.1,176.1z"/>
		<path class="st1" d="M150.5,181c-1.4-0.8-2.6-1.9-3.4-3.3c-0.8-1.4-1.2-3.1-1.2-5c0-1.9,0.4-3.6,1.3-5c0.8-1.4,2-2.5,3.4-3.3
			c1.5-0.8,3.1-1.2,4.9-1.2c1.8,0,3.4,0.4,4.9,1.2c1.5,0.8,2.6,1.9,3.4,3.3c0.8,1.4,1.3,3.1,1.3,5c0,1.9-0.4,3.6-1.3,5
			c-0.8,1.4-2,2.5-3.5,3.3c-1.5,0.8-3.1,1.2-4.9,1.2C153.5,182.2,151.9,181.8,150.5,181z M158.1,176.1c0.8-0.8,1.1-1.9,1.1-3.4
			c0-1.5-0.4-2.6-1.1-3.4c-0.7-0.8-1.6-1.2-2.7-1.2c-1.1,0-2,0.4-2.7,1.2c-0.7,0.8-1.1,1.9-1.1,3.4c0,1.5,0.4,2.6,1.1,3.4
			s1.6,1.2,2.7,1.2C156.4,177.3,157.3,176.9,158.1,176.1z"/>
		<path class="st1" d="M184.4,165.4c1.3,1.4,1.9,3.3,1.9,5.8v10.8h-5.6v-10c0-1.2-0.3-2.2-1-2.9c-0.6-0.7-1.5-1-2.6-1
			s-1.9,0.3-2.6,1c-0.6,0.7-1,1.6-1,2.9v10H168v-18.4h5.6v2.4c0.6-0.8,1.3-1.5,2.3-1.9c1-0.5,2.1-0.7,3.3-0.7
			C181.4,163.3,183.1,164,184.4,165.4z"/>
	</g>
	<g id="Icon_feather-loader" transform="translate(71.5 -0.5)">
		<path class="st1" d="M74.8,65.2c-1.4,0-2.5-1.1-2.5-2.5V6.6c0-1.4,1.1-2.5,2.5-2.5s2.5,1.1,2.5,2.5v56.1
			C77.3,64.1,76.2,65.2,74.8,65.2z"/>
		<path class="st1" d="M74.8,289.6c-1.4,0-2.5-1.1-2.5-2.5V231c0-1.4,1.1-2.5,2.5-2.5s2.5,1.1,2.5,2.5v56.1
			C77.3,288.5,76.2,289.6,74.8,289.6z"/>
		<path class="st1" d="M15.4,89.9c-0.6,0-1.3-0.2-1.8-0.7l-39.7-39.7c-1-1-1-2.6,0-3.5c1-1,2.6-1,3.5,0l39.7,39.7c1,1,1,2.6,0,3.5
			C16.7,89.6,16,89.9,15.4,89.9z"/>
		<path class="st1" d="M174,248.5c-0.6,0-1.3-0.2-1.8-0.7l-39.7-39.7c-1-1-1-2.6,0-3.5s2.6-1,3.5,0l39.7,39.7c1,1,1,2.6,0,3.5
			C175.3,248.3,174.6,248.5,174,248.5z"/>
		<path class="st1" d="M-9.3,149.3h-56.1c-1.4,0-2.5-1.1-2.5-2.5s1.1-2.5,2.5-2.5h56.1c1.4,0,2.5,1.1,2.5,2.5S-7.9,149.3-9.3,149.3z
			"/>
		<path class="st1" d="M215.1,149.3H159c-1.4,0-2.5-1.1-2.5-2.5s1.1-2.5,2.5-2.5h56.1c1.4,0,2.5,1.1,2.5,2.5
			S216.5,149.3,215.1,149.3z"/>
		<path class="st1" d="M-24.3,248.5c-0.6,0-1.3-0.2-1.8-0.7c-1-1-1-2.6,0-3.5l39.7-39.7c1-1,2.6-1,3.5,0s1,2.6,0,3.5l-39.7,39.7
			C-23,248.3-23.7,248.5-24.3,248.5z"/>
		<path class="st1" d="M134.3,89.9c-0.6,0-1.3-0.2-1.8-0.7c-1-1-1-2.6,0-3.5l39.7-39.7c1-1,2.6-1,3.5,0c1,1,1,2.6,0,3.5l-39.7,39.7
			C135.6,89.6,135,89.9,134.3,89.9z"/>
	</g>
</g>
</svg>
