<?xml version="1.0" encoding="utf-8"?>
<!-- Generator: Adobe Illustrator 27.5.0, SVG Export Plug-In . SVG Version: 6.00 Build 0)  -->
<svg version="1.1" id="Layer_1" xmlns="http://www.w3.org/2000/svg" xmlns:xlink="http://www.w3.org/1999/xlink" x="0px" y="0px"
	 viewBox="0 0 80 87.9" style="enable-background:new 0 0 80 87.9;" xml:space="preserve">
<style type="text/css">
	.st0{clip-path:url(#SVGID_00000041266102369444129330000001043151482771295150_);}
	.st1{fill:#FFFFFF;stroke:#FFFFFF;}
	.st2{enable-background:new    ;}
	.st3{fill:#FFFFFF;}
</style>
<g id="Group_7" transform="translate(-1045 -1095)">
	<g id="Group_6" transform="translate(1049 1103.132)">
		<g>
			<defs>
				<rect id="SVGID_1_" x="-4" y="-2" width="79.3" height="81.7"/>
			</defs>
			<clipPath id="SVGID_00000103246785399076271250000002270414009061563039_">
				<use xlink:href="#SVGID_1_"  style="overflow:visible;"/>
			</clipPath>
			
				<g id="Group_4" transform="translate(-4 -2)" style="clip-path:url(#SVGID_00000103246785399076271250000002270414009061563039_);">
				<path id="Path_18" class="st1" d="M71.4,58.6c-0.6-0.5-1.5-0.7-2.3-0.5c-0.1-0.8-0.4-1.7-0.9-2.3c-0.8-0.9-2-1.5-3.2-1.4
					c-1.8,0.2-3.6,0.7-5.2,1.5c-2.6,1-5.2,1.9-8,2.6c-0.9-0.8-2.1-1.3-3.3-1.2c-9.1,0.1-10.7-0.8-12.5-1.9c-2.1-1.2-4.4-2.6-16-2.9
					c-1.2,0-2.3,0.4-3.2,1.1c-0.4-0.7-1.1-1.1-1.9-1.1H8.3c-1.2,0-2.2,1-2.2,2.2c0,0,0,0,0,0v16.6c0,1.2,1,2.2,2.2,2.2c0,0,0,0,0,0
					H15c0.8,0,1.5-0.4,1.9-1.1c0.5,0.4,1.1,0.7,1.8,0.9c6,1.6,12.2,2.4,18.4,2.4c10.2,0,22.4-2.3,33.1-10.7c0.2-0.2,2.4-1.7,2.5-3.7
					C72.7,60.2,72.2,59.2,71.4,58.6 M60.7,57.9c1.4-0.7,2.9-1.1,4.5-1.3c0.5,0,1.1,0.2,1.4,0.6c0.3,0.5,0.5,1,0.4,1.6
					c-0.6,0.2-1.4,0.5-2.2,0.9c-3.8,1.6-7.7,3-11.6,4c0.1-0.3,0.1-0.5,0.1-0.8c0.1-0.8,0-1.6-0.2-2.4C55.7,59.7,58.2,58.9,60.7,57.9
					 M15,71.2H8.3V54.6H15V71.2z M68.9,63.2c-18.1,14.2-40.7,10.3-49.6,8c-1.2-0.3-2-1.4-2-2.7l0.1-11.2c0-1.5,1.2-2.7,2.7-2.7h0.1
					c11,0.3,13.1,1.5,14.9,2.6c2.1,1.2,3.8,2.3,13.7,2.2c0.7,0,1.3,0.2,1.8,0.7c0.6,0.7,0.8,1.7,0.7,2.6c0,0.3-0.1,1.1-1.8,1.8
					c0,0,0,0,0,0h0c-1.9,0.7-6,1.3-14.9,0.1c-0.6-0.1-1.2,0.3-1.2,0.9c-0.1,0.6,0.3,1.2,0.9,1.2l0,0c3,0.4,6.1,0.7,9.1,0.7
					c2.3,0.1,4.6-0.2,6.8-0.9c5.4-1.1,10.7-2.7,15.7-4.9c1.8-0.8,3.9-1.6,4.3-1.3c0.5,0.4,0.5,0.7,0.5,0.8
					C70.4,61.9,69.4,62.8,68.9,63.2"/>
				<path id="Path_19" class="st1" d="M11.6,66.6c-0.6,0-1.1,0.5-1.1,1.1c0,0.6,0.5,1.1,1.1,1.1c0.6,0,1.1-0.5,1.1-1.1c0,0,0,0,0,0
					C12.8,67.1,12.3,66.6,11.6,66.6C11.6,66.6,11.6,66.6,11.6,66.6"/>
			</g>
		</g>
	</g>
	<g class="st2">
		<path class="st3" d="M1092.8,1115.5c2,1.9,3,4.4,3,7.5c0,3.5-1.1,6.1-3.2,7.8s-5.1,2.5-8.8,2.5l-0.1,4.8h-4l-0.2-7.9h1.4
			c3.3,0,5.9-0.5,7.8-1.5c1.9-1,2.8-2.9,2.8-5.7c0-2-0.6-3.6-1.8-4.8c-1.2-1.2-2.8-1.8-4.9-1.8c-2.1,0-3.7,0.6-4.9,1.7
			c-1.2,1.1-1.8,2.6-1.8,4.6h-4.3c0-2,0.4-3.8,1.4-5.3c0.9-1.5,2.2-2.7,3.8-3.5s3.6-1.2,5.7-1.2
			C1088,1112.7,1090.7,1113.6,1092.8,1115.5z M1079.4,1147.4c-0.6-0.6-0.9-1.3-0.9-2.2c0-0.9,0.3-1.6,0.9-2.2s1.3-0.9,2.2-0.9
			c0.8,0,1.5,0.3,2.1,0.9c0.6,0.6,0.9,1.3,0.9,2.2c0,0.9-0.3,1.6-0.9,2.2c-0.6,0.6-1.3,0.9-2.1,0.9
			C1080.7,1148.3,1080,1148,1079.4,1147.4z"/>
	</g>
</g>
</svg>
