<svg xmlns="http://www.w3.org/2000/svg" xmlns:xlink="http://www.w3.org/1999/xlink" width="79.294" height="81.737" viewBox="0 0 79.294 81.737">
  <defs>
    <clipPath id="clip-path">
      <rect id="Rectangle_13" data-name="Rectangle 13" width="79.294" height="81.737" fill="#fff" stroke="#fff" stroke-width="1"/>
    </clipPath>
  </defs>
  <g id="Group_5" data-name="Group 5" transform="translate(4 2)">
    <g id="Group_4" data-name="Group 4" transform="translate(-4 -2)" clip-path="url(#clip-path)">
      <path id="Path_9" data-name="Path 9" d="M14.157,28.761a.848.848,0,0,0,.319,1.635h.44a2.7,2.7,0,0,1,0,2.46h-.44a.849.849,0,1,0,0,1.7H14.9a2.7,2.7,0,0,1,.262,1.754.85.85,0,1,0,1.67.318,4.465,4.465,0,0,0-.105-2.072H32.518a4.448,4.448,0,0,0,0,2.461H21.9a.849.849,0,1,0,0,1.7h7.842a2.182,2.182,0,0,1-.163.814.85.85,0,0,0,.459,1.111.861.861,0,0,0,.325.064.853.853,0,0,0,.786-.525,3.865,3.865,0,0,0,.292-1.464h3.331a.849.849,0,1,0,0-1.7h-.44a2.7,2.7,0,0,1,0-2.461h.44a.849.849,0,1,0,0-1.7h-.44a2.7,2.7,0,0,1,0-2.46h.44a.845.845,0,0,0,.283-1.643c.521-1.469,1.186-2.96,1.84-4.415,1.428-3.174,2.905-6.455,2.905-9.658A14.952,14.952,0,0,0,24.624,0,14.951,14.951,0,0,0,9.449,14.681c0,3.233,1.5,6.6,2.949,9.855.623,1.4,1.256,2.828,1.76,4.226m2.58,4.095a4.454,4.454,0,0,0,.006-2.46H32.506a4.444,4.444,0,0,0,.007,2.46ZM24.624,1.7A13.251,13.251,0,0,1,38.1,14.681c0,2.837-4.254,12.314-4.819,14.015-.051.526-17.192-.128-17.441.85-.55-1.618-1.18-4.109-1.889-5.7-1.379-3.094-2.8-6.292-2.8-9.163A13.251,13.251,0,0,1,24.624,1.7" transform="translate(17.908 10.018)" fill="#fff" stroke="#fff" stroke-width="1.5"/>
      <path id="Path_18" data-name="Path 18" d="M65.364,38.829a2.675,2.675,0,0,0-2.255-.519,4.335,4.335,0,0,0-.87-2.336,3.963,3.963,0,0,0-3.183-1.414,16.941,16.941,0,0,0-5.233,1.486,57.361,57.361,0,0,1-7.957,2.56,4.863,4.863,0,0,0-3.335-1.243c-9.148.112-10.677-.8-12.456-1.859-2.054-1.217-4.38-2.6-15.986-2.9a4.893,4.893,0,0,0-3.213,1.117,2.2,2.2,0,0,0-1.9-1.119H2.2a2.2,2.2,0,0,0-2.2,2.2V51.45a2.2,2.2,0,0,0,2.2,2.2H8.971a2.2,2.2,0,0,0,1.878-1.07,4.9,4.9,0,0,0,1.8.919,73.522,73.522,0,0,0,18.414,2.405c10.21,0,22.379-2.328,33.072-10.721.244-.167,2.387-1.688,2.491-3.711a3.173,3.173,0,0,0-1.261-2.644m-10.75-.73a16.1,16.1,0,0,1,4.47-1.338,1.745,1.745,0,0,1,1.439.59,2.333,2.333,0,0,1,.424,1.57c-.649.245-1.365.543-2.158.876a74.56,74.56,0,0,1-11.64,3.984,3.762,3.762,0,0,0,.141-.8,6.827,6.827,0,0,0-.227-2.392A60.944,60.944,0,0,0,54.614,38.1M8.971,51.45H2.2V34.809H8.971Zm53.862-8.039C44.706,57.639,22.092,53.72,13.211,51.374a2.741,2.741,0,0,1-2.039-2.667l.053-11.166a2.746,2.746,0,0,1,2.737-2.732l.071,0c11.031.282,13.1,1.506,14.92,2.588,2.063,1.225,3.849,2.274,13.65,2.165a2.633,2.633,0,0,1,1.81.687,3.262,3.262,0,0,1,.68,2.582c-.018.28-.074,1.122-1.777,1.8-.014,0-.026.012-.039.017l-.02,0c-1.857.714-5.952,1.312-14.92.107a1.1,1.1,0,0,0-.292,2.181,70.1,70.1,0,0,0,9.115.707,20.17,20.17,0,0,0,6.789-.908,74.27,74.27,0,0,0,15.69-4.91c1.838-.77,3.92-1.641,4.3-1.32.507.431.493.734.487.849-.036.742-1.053,1.676-1.6,2.054" transform="translate(6.055 19.776)" fill="#fff" stroke="#fff" stroke-width="1"/>
      <path id="Path_19" data-name="Path 19" d="M4.07,42.012a1.116,1.116,0,1,0,1.114,1.116A1.114,1.114,0,0,0,4.07,42.012" transform="translate(7.572 24.607)" fill="#fff" stroke="#fff" stroke-width="1"/>
    </g>
  </g>
</svg>
