<svg xmlns="http://www.w3.org/2000/svg" width="17.338" height="17.3" viewBox="0 0 17.338 17.3">
  <g id="XMLID_801_" transform="translate(0 -0.341)">
    <path id="XMLID_802_" d="M8.687,99.73H5.207a.28.28,0,0,0-.28.28v11.182a.28.28,0,0,0,.28.28H8.687a.28.28,0,0,0,.28-.28V100.01A.28.28,0,0,0,8.687,99.73Z" transform="translate(-4.651 -93.83)" fill="#fff"/>
    <path id="XMLID_803_" d="M2.3.341A2.295,2.295,0,1,0,4.592,2.635,2.3,2.3,0,0,0,2.3.341Z" fill="#fff"/>
    <path id="XMLID_804_" d="M113.127,94.761a4.088,4.088,0,0,0-3.058,1.284v-.726a.28.28,0,0,0-.28-.28h-3.333a.28.28,0,0,0-.28.28V106.5a.28.28,0,0,0,.28.28h3.473a.28.28,0,0,0,.28-.28v-5.532c0-1.864.506-2.591,1.806-2.591,1.415,0,1.528,1.164,1.528,2.687V106.5a.28.28,0,0,0,.28.28H117.3a.28.28,0,0,0,.28-.28v-6.133C117.576,97.595,117.047,94.761,113.127,94.761Z" transform="translate(-100.238 -89.139)" fill="#fff"/>
  </g>
</svg>
